<mxfile host="Electron" modified="2024-07-02T00:12:09.639Z" agent="Mozilla/5.0 (Windows NT 10.0; Win64; x64) AppleWebKit/537.36 (KHTML, like Gecko) draw.io/24.5.3 Chrome/124.0.6367.207 Electron/30.0.6 Safari/537.36" etag="8fd74OpKY4Nw5MK8vN8e" version="24.5.3" type="device">
  <diagram name="Страница — 1" id="DULXyayiZCEJ9AK-7jJk">
    <mxGraphModel dx="1594" dy="945" grid="0" gridSize="10" guides="1" tooltips="1" connect="1" arrows="1" fold="1" page="1" pageScale="1" pageWidth="827" pageHeight="1169" math="0" shadow="0">
      <root>
        <mxCell id="0" />
        <mxCell id="1" parent="0" />
        <mxCell id="Uejm1Gg7amnfDFoBMClL-1" value="Создание курса" style="rounded=0;whiteSpace=wrap;html=1;" parent="1" vertex="1">
          <mxGeometry x="240" y="170" width="120" height="60" as="geometry" />
        </mxCell>
        <mxCell id="Uejm1Gg7amnfDFoBMClL-2" value="A0" style="text;html=1;align=center;verticalAlign=middle;whiteSpace=wrap;rounded=0;" parent="1" vertex="1">
          <mxGeometry x="330" y="210" width="30" height="20" as="geometry" />
        </mxCell>
        <mxCell id="Uejm1Gg7amnfDFoBMClL-5" value="" style="endArrow=classic;html=1;rounded=0;entryX=0.5;entryY=0;entryDx=0;entryDy=0;" parent="1" target="Uejm1Gg7amnfDFoBMClL-1" edge="1">
          <mxGeometry width="50" height="50" relative="1" as="geometry">
            <mxPoint x="300" y="110" as="sourcePoint" />
            <mxPoint x="470" y="240" as="targetPoint" />
          </mxGeometry>
        </mxCell>
        <mxCell id="Uejm1Gg7amnfDFoBMClL-6" value="Быть авторизованным" style="text;html=1;align=center;verticalAlign=middle;whiteSpace=wrap;rounded=0;" parent="1" vertex="1">
          <mxGeometry x="300" y="120" width="110" height="30" as="geometry" />
        </mxCell>
        <mxCell id="Uejm1Gg7amnfDFoBMClL-7" value="" style="endArrow=classic;html=1;rounded=0;entryX=0.5;entryY=0;entryDx=0;entryDy=0;" parent="1" edge="1">
          <mxGeometry width="50" height="50" relative="1" as="geometry">
            <mxPoint x="300" y="290" as="sourcePoint" />
            <mxPoint x="300" y="230" as="targetPoint" />
          </mxGeometry>
        </mxCell>
        <mxCell id="Uejm1Gg7amnfDFoBMClL-8" value="Преподаватель" style="text;html=1;align=center;verticalAlign=middle;whiteSpace=wrap;rounded=0;" parent="1" vertex="1">
          <mxGeometry x="315" y="250" width="60" height="30" as="geometry" />
        </mxCell>
        <mxCell id="Uejm1Gg7amnfDFoBMClL-9" value="" style="endArrow=classic;html=1;rounded=0;exitX=1;exitY=0.5;exitDx=0;exitDy=0;entryX=0;entryY=0.5;entryDx=0;entryDy=0;" parent="1" source="Uejm1Gg7amnfDFoBMClL-1" edge="1">
          <mxGeometry width="50" height="50" relative="1" as="geometry">
            <mxPoint x="400" y="180" as="sourcePoint" />
            <mxPoint x="420" y="200" as="targetPoint" />
            <Array as="points">
              <mxPoint x="400" y="200" />
              <mxPoint x="420" y="200" />
            </Array>
          </mxGeometry>
        </mxCell>
        <mxCell id="Uejm1Gg7amnfDFoBMClL-13" value="" style="endArrow=classic;html=1;rounded=0;entryX=0;entryY=0.5;entryDx=0;entryDy=0;" parent="1" target="Uejm1Gg7amnfDFoBMClL-1" edge="1">
          <mxGeometry width="50" height="50" relative="1" as="geometry">
            <mxPoint x="180" y="200" as="sourcePoint" />
            <mxPoint x="420" y="170" as="targetPoint" />
          </mxGeometry>
        </mxCell>
        <mxCell id="Uejm1Gg7amnfDFoBMClL-34" value="" style="endArrow=classic;html=1;rounded=0;exitX=1;exitY=0.5;exitDx=0;exitDy=0;entryX=0;entryY=0.5;entryDx=0;entryDy=0;" parent="1" target="Uejm1Gg7amnfDFoBMClL-35" edge="1">
          <mxGeometry width="50" height="50" relative="1" as="geometry">
            <mxPoint x="82" y="506" as="sourcePoint" />
            <mxPoint x="162" y="506" as="targetPoint" />
            <Array as="points">
              <mxPoint x="122" y="506" />
              <mxPoint x="142" y="506" />
            </Array>
          </mxGeometry>
        </mxCell>
        <mxCell id="Uejm1Gg7amnfDFoBMClL-52" style="edgeStyle=orthogonalEdgeStyle;rounded=0;orthogonalLoop=1;jettySize=auto;html=1;exitX=1;exitY=0.5;exitDx=0;exitDy=0;entryX=0;entryY=0.5;entryDx=0;entryDy=0;" parent="1" source="Uejm1Gg7amnfDFoBMClL-35" target="Uejm1Gg7amnfDFoBMClL-44" edge="1">
          <mxGeometry relative="1" as="geometry" />
        </mxCell>
        <mxCell id="Uejm1Gg7amnfDFoBMClL-35" value="Ввод базовой информации" style="rounded=0;whiteSpace=wrap;html=1;" parent="1" vertex="1">
          <mxGeometry x="142" y="476" width="120" height="60" as="geometry" />
        </mxCell>
        <mxCell id="Uejm1Gg7amnfDFoBMClL-36" value="" style="endArrow=classic;html=1;rounded=0;entryX=0.5;entryY=0;entryDx=0;entryDy=0;" parent="1" edge="1">
          <mxGeometry width="50" height="50" relative="1" as="geometry">
            <mxPoint x="201.75" y="596" as="sourcePoint" />
            <mxPoint x="201.75" y="536" as="targetPoint" />
          </mxGeometry>
        </mxCell>
        <mxCell id="Uejm1Gg7amnfDFoBMClL-37" value="Преподаватель" style="text;html=1;align=center;verticalAlign=middle;whiteSpace=wrap;rounded=0;" parent="1" vertex="1">
          <mxGeometry x="222" y="551" width="60" height="30" as="geometry" />
        </mxCell>
        <mxCell id="Uejm1Gg7amnfDFoBMClL-38" value="" style="endArrow=classic;html=1;rounded=0;entryX=0.5;entryY=0;entryDx=0;entryDy=0;" parent="1" edge="1">
          <mxGeometry width="50" height="50" relative="1" as="geometry">
            <mxPoint x="201.75" y="416" as="sourcePoint" />
            <mxPoint x="201.75" y="476" as="targetPoint" />
          </mxGeometry>
        </mxCell>
        <mxCell id="Uejm1Gg7amnfDFoBMClL-40" value="Наименование, описание курса" style="text;html=1;align=center;verticalAlign=middle;whiteSpace=wrap;rounded=0;" parent="1" vertex="1">
          <mxGeometry x="32" y="476" width="110" height="30" as="geometry" />
        </mxCell>
        <mxCell id="Uejm1Gg7amnfDFoBMClL-41" value="Длина более 0 символов" style="text;html=1;align=center;verticalAlign=middle;whiteSpace=wrap;rounded=0;" parent="1" vertex="1">
          <mxGeometry x="207" y="416" width="100" height="30" as="geometry" />
        </mxCell>
        <mxCell id="Uejm1Gg7amnfDFoBMClL-42" value="A1" style="text;html=1;align=center;verticalAlign=middle;whiteSpace=wrap;rounded=0;" parent="1" vertex="1">
          <mxGeometry x="232" y="516" width="30" height="20" as="geometry" />
        </mxCell>
        <mxCell id="Uejm1Gg7amnfDFoBMClL-63" style="edgeStyle=orthogonalEdgeStyle;rounded=0;orthogonalLoop=1;jettySize=auto;html=1;entryX=0;entryY=0.5;entryDx=0;entryDy=0;" parent="1" source="Uejm1Gg7amnfDFoBMClL-44" target="Uejm1Gg7amnfDFoBMClL-53" edge="1">
          <mxGeometry relative="1" as="geometry" />
        </mxCell>
        <mxCell id="Uejm1Gg7amnfDFoBMClL-44" value="Разбиение данных на модули и уроки" style="rounded=0;whiteSpace=wrap;html=1;" parent="1" vertex="1">
          <mxGeometry x="387" y="516" width="120" height="60" as="geometry" />
        </mxCell>
        <mxCell id="Uejm1Gg7amnfDFoBMClL-45" value="" style="endArrow=classic;html=1;rounded=0;entryX=0.5;entryY=0;entryDx=0;entryDy=0;" parent="1" edge="1">
          <mxGeometry width="50" height="50" relative="1" as="geometry">
            <mxPoint x="446.75" y="636" as="sourcePoint" />
            <mxPoint x="446.75" y="576" as="targetPoint" />
          </mxGeometry>
        </mxCell>
        <mxCell id="Uejm1Gg7amnfDFoBMClL-46" value="Преподаватель" style="text;html=1;align=center;verticalAlign=middle;whiteSpace=wrap;rounded=0;" parent="1" vertex="1">
          <mxGeometry x="467" y="591" width="60" height="30" as="geometry" />
        </mxCell>
        <mxCell id="Uejm1Gg7amnfDFoBMClL-49" value="Названия модулей, уроков" style="text;html=1;align=center;verticalAlign=middle;whiteSpace=wrap;rounded=0;" parent="1" vertex="1">
          <mxGeometry x="282" y="466" width="85" height="30" as="geometry" />
        </mxCell>
        <mxCell id="Uejm1Gg7amnfDFoBMClL-51" value="A2" style="text;html=1;align=center;verticalAlign=middle;whiteSpace=wrap;rounded=0;" parent="1" vertex="1">
          <mxGeometry x="477" y="556" width="30" height="20" as="geometry" />
        </mxCell>
        <mxCell id="Uejm1Gg7amnfDFoBMClL-77" style="edgeStyle=orthogonalEdgeStyle;rounded=0;orthogonalLoop=1;jettySize=auto;html=1;exitX=1;exitY=0.5;exitDx=0;exitDy=0;entryX=0;entryY=0.5;entryDx=0;entryDy=0;" parent="1" source="Uejm1Gg7amnfDFoBMClL-53" target="Uejm1Gg7amnfDFoBMClL-65" edge="1">
          <mxGeometry relative="1" as="geometry" />
        </mxCell>
        <mxCell id="Uejm1Gg7amnfDFoBMClL-53" value="Создание отельных уроков" style="rounded=0;whiteSpace=wrap;html=1;" parent="1" vertex="1">
          <mxGeometry x="689.5" y="556" width="120" height="60" as="geometry" />
        </mxCell>
        <mxCell id="Uejm1Gg7amnfDFoBMClL-54" value="" style="endArrow=classic;html=1;rounded=0;entryX=0.5;entryY=0;entryDx=0;entryDy=0;" parent="1" edge="1">
          <mxGeometry width="50" height="50" relative="1" as="geometry">
            <mxPoint x="749.25" y="676" as="sourcePoint" />
            <mxPoint x="749.25" y="616" as="targetPoint" />
          </mxGeometry>
        </mxCell>
        <mxCell id="Uejm1Gg7amnfDFoBMClL-55" value="Преподаватель" style="text;html=1;align=center;verticalAlign=middle;whiteSpace=wrap;rounded=0;" parent="1" vertex="1">
          <mxGeometry x="769.5" y="631" width="60" height="30" as="geometry" />
        </mxCell>
        <mxCell id="Uejm1Gg7amnfDFoBMClL-56" value="" style="endArrow=classic;html=1;rounded=0;entryX=0.5;entryY=0;entryDx=0;entryDy=0;" parent="1" edge="1">
          <mxGeometry width="50" height="50" relative="1" as="geometry">
            <mxPoint x="749.25" y="496" as="sourcePoint" />
            <mxPoint x="749.25" y="556" as="targetPoint" />
          </mxGeometry>
        </mxCell>
        <mxCell id="Uejm1Gg7amnfDFoBMClL-58" value="Информация в формате видео, текста, прочих файлов" style="text;html=1;align=center;verticalAlign=middle;whiteSpace=wrap;rounded=0;" parent="1" vertex="1">
          <mxGeometry x="534" y="506" width="132.5" height="30" as="geometry" />
        </mxCell>
        <mxCell id="Uejm1Gg7amnfDFoBMClL-60" value="Размер файлов" style="text;html=1;align=center;verticalAlign=middle;whiteSpace=wrap;rounded=0;" parent="1" vertex="1">
          <mxGeometry x="749.5" y="506" width="60" height="30" as="geometry" />
        </mxCell>
        <mxCell id="Uejm1Gg7amnfDFoBMClL-61" value="" style="endArrow=classic;html=1;rounded=0;entryX=0.5;entryY=0;entryDx=0;entryDy=0;" parent="1" edge="1">
          <mxGeometry width="50" height="50" relative="1" as="geometry">
            <mxPoint x="447" y="456" as="sourcePoint" />
            <mxPoint x="447" y="516" as="targetPoint" />
          </mxGeometry>
        </mxCell>
        <mxCell id="Uejm1Gg7amnfDFoBMClL-62" value="Длина более 0 символов" style="text;html=1;align=center;verticalAlign=middle;whiteSpace=wrap;rounded=0;" parent="1" vertex="1">
          <mxGeometry x="432" y="456" width="120" height="30" as="geometry" />
        </mxCell>
        <mxCell id="Uejm1Gg7amnfDFoBMClL-70" style="edgeStyle=orthogonalEdgeStyle;rounded=0;orthogonalLoop=1;jettySize=auto;html=1;" parent="1" source="Uejm1Gg7amnfDFoBMClL-65" edge="1">
          <mxGeometry relative="1" as="geometry">
            <mxPoint x="1125.75" y="626" as="targetPoint" />
          </mxGeometry>
        </mxCell>
        <mxCell id="Uejm1Gg7amnfDFoBMClL-65" value="Проверка курса перед публикацией" style="rounded=0;whiteSpace=wrap;html=1;" parent="1" vertex="1">
          <mxGeometry x="920.75" y="596" width="120" height="60" as="geometry" />
        </mxCell>
        <mxCell id="Uejm1Gg7amnfDFoBMClL-66" value="" style="endArrow=classic;html=1;rounded=0;entryX=0.5;entryY=0;entryDx=0;entryDy=0;" parent="1" edge="1">
          <mxGeometry width="50" height="50" relative="1" as="geometry">
            <mxPoint x="980.5" y="716" as="sourcePoint" />
            <mxPoint x="980.5" y="656" as="targetPoint" />
          </mxGeometry>
        </mxCell>
        <mxCell id="Uejm1Gg7amnfDFoBMClL-67" value="Администратор" style="text;html=1;align=center;verticalAlign=middle;whiteSpace=wrap;rounded=0;" parent="1" vertex="1">
          <mxGeometry x="1000.75" y="671" width="60" height="30" as="geometry" />
        </mxCell>
        <mxCell id="Uejm1Gg7amnfDFoBMClL-68" value="" style="endArrow=classic;html=1;rounded=0;entryX=0.5;entryY=0;entryDx=0;entryDy=0;" parent="1" edge="1">
          <mxGeometry width="50" height="50" relative="1" as="geometry">
            <mxPoint x="979.8399999999999" y="536" as="sourcePoint" />
            <mxPoint x="979.8399999999999" y="596" as="targetPoint" />
          </mxGeometry>
        </mxCell>
        <mxCell id="Uejm1Gg7amnfDFoBMClL-69" value="Соответствие внутренним правилам платформы" style="text;html=1;align=center;verticalAlign=middle;whiteSpace=wrap;rounded=0;" parent="1" vertex="1">
          <mxGeometry x="980.75" y="546" width="155" height="30" as="geometry" />
        </mxCell>
        <mxCell id="Uejm1Gg7amnfDFoBMClL-71" value="A3" style="text;html=1;align=center;verticalAlign=middle;whiteSpace=wrap;rounded=0;" parent="1" vertex="1">
          <mxGeometry x="779.5" y="596" width="30" height="20" as="geometry" />
        </mxCell>
        <mxCell id="Uejm1Gg7amnfDFoBMClL-72" value="A4" style="text;html=1;align=center;verticalAlign=middle;whiteSpace=wrap;rounded=0;" parent="1" vertex="1">
          <mxGeometry x="1012.3800000000001" y="636" width="30" height="20" as="geometry" />
        </mxCell>
        <mxCell id="Uejm1Gg7amnfDFoBMClL-73" value="Наименование, описание курса" style="text;html=1;align=center;verticalAlign=middle;whiteSpace=wrap;rounded=0;" parent="1" vertex="1">
          <mxGeometry x="130" y="160" width="110" height="30" as="geometry" />
        </mxCell>
        <mxCell id="Uejm1Gg7amnfDFoBMClL-74" value="Названия модулей, уроков" style="text;html=1;align=center;verticalAlign=middle;whiteSpace=wrap;rounded=0;" parent="1" vertex="1">
          <mxGeometry x="142.5" y="120" width="85" height="30" as="geometry" />
        </mxCell>
        <mxCell id="Uejm1Gg7amnfDFoBMClL-75" value="Информация в формате видео, текста, прочих файлов" style="text;html=1;align=center;verticalAlign=middle;whiteSpace=wrap;rounded=0;" parent="1" vertex="1">
          <mxGeometry x="118.75" y="70" width="132.5" height="30" as="geometry" />
        </mxCell>
        <mxCell id="Uejm1Gg7amnfDFoBMClL-76" value="Созданный курс" style="text;html=1;align=center;verticalAlign=middle;whiteSpace=wrap;rounded=0;" parent="1" vertex="1">
          <mxGeometry x="360" y="170" width="100" height="30" as="geometry" />
        </mxCell>
        <mxCell id="Uejm1Gg7amnfDFoBMClL-78" value="Заполнение текстовой информацией" style="rounded=0;whiteSpace=wrap;html=1;" parent="1" vertex="1">
          <mxGeometry x="82" y="686" width="130" height="60" as="geometry" />
        </mxCell>
        <mxCell id="Uejm1Gg7amnfDFoBMClL-79" value="3.1" style="text;html=1;align=center;verticalAlign=middle;whiteSpace=wrap;rounded=0;" parent="1" vertex="1">
          <mxGeometry x="182" y="726" width="30" height="20" as="geometry" />
        </mxCell>
        <mxCell id="Uejm1Gg7amnfDFoBMClL-80" value="" style="endArrow=classic;html=1;rounded=0;entryX=0.5;entryY=0;entryDx=0;entryDy=0;" parent="1" edge="1">
          <mxGeometry width="50" height="50" relative="1" as="geometry">
            <mxPoint x="146.88" y="626" as="sourcePoint" />
            <mxPoint x="146.88" y="686" as="targetPoint" />
          </mxGeometry>
        </mxCell>
        <mxCell id="Uejm1Gg7amnfDFoBMClL-81" value="Длина текста" style="text;html=1;align=center;verticalAlign=middle;whiteSpace=wrap;rounded=0;" parent="1" vertex="1">
          <mxGeometry x="147.13" y="636" width="60" height="30" as="geometry" />
        </mxCell>
        <mxCell id="Uejm1Gg7amnfDFoBMClL-82" value="Длина текста" style="text;html=1;align=center;verticalAlign=middle;whiteSpace=wrap;rounded=0;" parent="1" vertex="1">
          <mxGeometry x="747" y="476" width="60" height="30" as="geometry" />
        </mxCell>
        <mxCell id="Uejm1Gg7amnfDFoBMClL-84" value="" style="endArrow=classic;html=1;rounded=0;entryX=0;entryY=0.5;entryDx=0;entryDy=0;" parent="1" target="Uejm1Gg7amnfDFoBMClL-78" edge="1">
          <mxGeometry width="50" height="50" relative="1" as="geometry">
            <mxPoint x="32" y="716" as="sourcePoint" />
            <mxPoint x="156.88" y="696" as="targetPoint" />
          </mxGeometry>
        </mxCell>
        <mxCell id="Uejm1Gg7amnfDFoBMClL-85" value="" style="endArrow=classic;html=1;rounded=0;entryX=0.5;entryY=0;entryDx=0;entryDy=0;" parent="1" edge="1">
          <mxGeometry width="50" height="50" relative="1" as="geometry">
            <mxPoint x="147.13" y="806" as="sourcePoint" />
            <mxPoint x="147.13" y="746" as="targetPoint" />
          </mxGeometry>
        </mxCell>
        <mxCell id="Uejm1Gg7amnfDFoBMClL-86" value="Преподаватель" style="text;html=1;align=center;verticalAlign=middle;whiteSpace=wrap;rounded=0;" parent="1" vertex="1">
          <mxGeometry x="167.38" y="761" width="60" height="30" as="geometry" />
        </mxCell>
        <mxCell id="Uejm1Gg7amnfDFoBMClL-102" style="edgeStyle=orthogonalEdgeStyle;rounded=0;orthogonalLoop=1;jettySize=auto;html=1;exitX=1;exitY=0.5;exitDx=0;exitDy=0;entryX=0;entryY=0.5;entryDx=0;entryDy=0;" parent="1" source="Uejm1Gg7amnfDFoBMClL-87" target="Uejm1Gg7amnfDFoBMClL-97" edge="1">
          <mxGeometry relative="1" as="geometry">
            <mxPoint x="484.1199999999999" y="936" as="sourcePoint" />
          </mxGeometry>
        </mxCell>
        <mxCell id="Uejm1Gg7amnfDFoBMClL-87" value="Прикрепление видео и дополнительных файлов&amp;nbsp;" style="rounded=0;whiteSpace=wrap;html=1;" parent="1" vertex="1">
          <mxGeometry x="309.12" y="756" width="130" height="60" as="geometry" />
        </mxCell>
        <mxCell id="Uejm1Gg7amnfDFoBMClL-88" value="" style="endArrow=classic;html=1;rounded=0;entryX=0.5;entryY=0;entryDx=0;entryDy=0;" parent="1" edge="1">
          <mxGeometry width="50" height="50" relative="1" as="geometry">
            <mxPoint x="374" y="696" as="sourcePoint" />
            <mxPoint x="374" y="756" as="targetPoint" />
          </mxGeometry>
        </mxCell>
        <mxCell id="Uejm1Gg7amnfDFoBMClL-89" value="Размер файлов" style="text;html=1;align=center;verticalAlign=middle;whiteSpace=wrap;rounded=0;" parent="1" vertex="1">
          <mxGeometry x="374.25" y="706" width="60" height="30" as="geometry" />
        </mxCell>
        <mxCell id="Uejm1Gg7amnfDFoBMClL-90" value="" style="endArrow=classic;html=1;rounded=0;entryX=0;entryY=0.5;entryDx=0;entryDy=0;" parent="1" target="Uejm1Gg7amnfDFoBMClL-87" edge="1">
          <mxGeometry width="50" height="50" relative="1" as="geometry">
            <mxPoint x="212" y="716" as="sourcePoint" />
            <mxPoint x="336.88" y="696" as="targetPoint" />
            <Array as="points">
              <mxPoint x="272" y="716" />
              <mxPoint x="272" y="786" />
            </Array>
          </mxGeometry>
        </mxCell>
        <mxCell id="Uejm1Gg7amnfDFoBMClL-91" value="" style="endArrow=classic;html=1;rounded=0;entryX=0.5;entryY=0;entryDx=0;entryDy=0;" parent="1" edge="1">
          <mxGeometry width="50" height="50" relative="1" as="geometry">
            <mxPoint x="374.25" y="876" as="sourcePoint" />
            <mxPoint x="374.25" y="816" as="targetPoint" />
          </mxGeometry>
        </mxCell>
        <mxCell id="Uejm1Gg7amnfDFoBMClL-92" value="Преподаватель" style="text;html=1;align=center;verticalAlign=middle;whiteSpace=wrap;rounded=0;" parent="1" vertex="1">
          <mxGeometry x="394.5" y="831" width="60" height="30" as="geometry" />
        </mxCell>
        <mxCell id="Uejm1Gg7amnfDFoBMClL-108" style="edgeStyle=orthogonalEdgeStyle;rounded=0;orthogonalLoop=1;jettySize=auto;html=1;exitX=1;exitY=0.5;exitDx=0;exitDy=0;entryX=0;entryY=0.5;entryDx=0;entryDy=0;" parent="1" source="Uejm1Gg7amnfDFoBMClL-97" target="Uejm1Gg7amnfDFoBMClL-103" edge="1">
          <mxGeometry relative="1" as="geometry" />
        </mxCell>
        <mxCell id="Uejm1Gg7amnfDFoBMClL-97" value="Создание опросов для контроля знаний" style="rounded=0;whiteSpace=wrap;html=1;" parent="1" vertex="1">
          <mxGeometry x="514.5" y="836" width="130" height="60" as="geometry" />
        </mxCell>
        <mxCell id="Uejm1Gg7amnfDFoBMClL-98" value="" style="endArrow=classic;html=1;rounded=0;entryX=0.5;entryY=0;entryDx=0;entryDy=0;" parent="1" edge="1">
          <mxGeometry width="50" height="50" relative="1" as="geometry">
            <mxPoint x="579.3800000000001" y="776" as="sourcePoint" />
            <mxPoint x="579.3800000000001" y="836" as="targetPoint" />
          </mxGeometry>
        </mxCell>
        <mxCell id="Uejm1Gg7amnfDFoBMClL-99" value="количество вопросов более 0" style="text;html=1;align=center;verticalAlign=middle;whiteSpace=wrap;rounded=0;" parent="1" vertex="1">
          <mxGeometry x="584.5" y="776" width="60" height="30" as="geometry" />
        </mxCell>
        <mxCell id="Uejm1Gg7amnfDFoBMClL-100" value="" style="endArrow=classic;html=1;rounded=0;entryX=0.5;entryY=0;entryDx=0;entryDy=0;" parent="1" edge="1">
          <mxGeometry width="50" height="50" relative="1" as="geometry">
            <mxPoint x="579.6300000000001" y="956" as="sourcePoint" />
            <mxPoint x="579.6300000000001" y="896" as="targetPoint" />
          </mxGeometry>
        </mxCell>
        <mxCell id="Uejm1Gg7amnfDFoBMClL-101" value="Преподаватель" style="text;html=1;align=center;verticalAlign=middle;whiteSpace=wrap;rounded=0;" parent="1" vertex="1">
          <mxGeometry x="599.8800000000001" y="911" width="60" height="30" as="geometry" />
        </mxCell>
        <mxCell id="Uejm1Gg7amnfDFoBMClL-109" style="edgeStyle=orthogonalEdgeStyle;rounded=0;orthogonalLoop=1;jettySize=auto;html=1;" parent="1" source="Uejm1Gg7amnfDFoBMClL-103" edge="1">
          <mxGeometry relative="1" as="geometry">
            <mxPoint x="962" y="911" as="targetPoint" />
          </mxGeometry>
        </mxCell>
        <mxCell id="Uejm1Gg7amnfDFoBMClL-103" value="Прикрепление компилятора/интерпретатора" style="rounded=0;whiteSpace=wrap;html=1;" parent="1" vertex="1">
          <mxGeometry x="745.75" y="876" width="130" height="70" as="geometry" />
        </mxCell>
        <mxCell id="Uejm1Gg7amnfDFoBMClL-106" value="" style="endArrow=classic;html=1;rounded=0;entryX=0.5;entryY=0;entryDx=0;entryDy=0;" parent="1" edge="1">
          <mxGeometry width="50" height="50" relative="1" as="geometry">
            <mxPoint x="810.8800000000001" y="1006" as="sourcePoint" />
            <mxPoint x="810.8800000000001" y="946" as="targetPoint" />
          </mxGeometry>
        </mxCell>
        <mxCell id="Uejm1Gg7amnfDFoBMClL-107" value="Преподаватель" style="text;html=1;align=center;verticalAlign=middle;whiteSpace=wrap;rounded=0;" parent="1" vertex="1">
          <mxGeometry x="831.1300000000001" y="961" width="60" height="30" as="geometry" />
        </mxCell>
        <mxCell id="Uejm1Gg7amnfDFoBMClL-110" value="3.2" style="text;html=1;align=center;verticalAlign=middle;whiteSpace=wrap;rounded=0;" parent="1" vertex="1">
          <mxGeometry x="409.5" y="796" width="30" height="20" as="geometry" />
        </mxCell>
        <mxCell id="Uejm1Gg7amnfDFoBMClL-111" value="файлы" style="text;html=1;align=center;verticalAlign=middle;whiteSpace=wrap;rounded=0;" parent="1" vertex="1">
          <mxGeometry x="242" y="686" width="60" height="30" as="geometry" />
        </mxCell>
        <mxCell id="Uejm1Gg7amnfDFoBMClL-112" value="текст" style="text;html=1;align=center;verticalAlign=middle;whiteSpace=wrap;rounded=0;" parent="1" vertex="1">
          <mxGeometry x="22" y="686" width="60" height="30" as="geometry" />
        </mxCell>
        <mxCell id="Uejm1Gg7amnfDFoBMClL-113" value="текст" style="text;html=1;align=center;verticalAlign=middle;whiteSpace=wrap;rounded=0;" parent="1" vertex="1">
          <mxGeometry x="454.5" y="756" width="60" height="30" as="geometry" />
        </mxCell>
        <mxCell id="Uejm1Gg7amnfDFoBMClL-114" value="3.3" style="text;html=1;align=center;verticalAlign=middle;whiteSpace=wrap;rounded=0;" parent="1" vertex="1">
          <mxGeometry x="618" y="876" width="30" height="20" as="geometry" />
        </mxCell>
        <mxCell id="Uejm1Gg7amnfDFoBMClL-115" value="3.4" style="text;html=1;align=center;verticalAlign=middle;whiteSpace=wrap;rounded=0;" parent="1" vertex="1">
          <mxGeometry x="846.1300000000001" y="926" width="30" height="20" as="geometry" />
        </mxCell>
        <mxCell id="Uejm1Gg7amnfDFoBMClL-116" value="урок" style="text;html=1;align=center;verticalAlign=middle;whiteSpace=wrap;rounded=0;" parent="1" vertex="1">
          <mxGeometry x="892" y="876" width="60" height="30" as="geometry" />
        </mxCell>
        <mxCell id="Uejm1Gg7amnfDFoBMClL-117" value="задание" style="text;html=1;align=center;verticalAlign=middle;whiteSpace=wrap;rounded=0;" parent="1" vertex="1">
          <mxGeometry x="659.8800000000001" y="831" width="60" height="30" as="geometry" />
        </mxCell>
        <mxCell id="HCS1jBYs1pQ477xhilA6-1" value="урок" style="text;html=1;align=center;verticalAlign=middle;whiteSpace=wrap;rounded=0;" parent="1" vertex="1">
          <mxGeometry x="809.5" y="556" width="60" height="30" as="geometry" />
        </mxCell>
        <mxCell id="HCS1jBYs1pQ477xhilA6-2" value="система оценивания" style="text;html=1;align=center;verticalAlign=middle;whiteSpace=wrap;rounded=0;" parent="1" vertex="1">
          <mxGeometry x="584.5" y="736" width="60" height="30" as="geometry" />
        </mxCell>
      </root>
    </mxGraphModel>
  </diagram>
</mxfile>
